<?xml version="1.0" encoding="utf-8"?>
<svg xmlns="http://www.w3.org/2000/svg" viewBox="0 0 542 92">
    <defs>
        <style>
            .cls-1 {
                fill:#2f2e2e;
            }
            .cls-2 {
                fill:#61456a;
            }
        </style>
    </defs>
    <title>Hyperpic</title>
    <path class="cls-1" d="M25.5,83.43h-3V7.53h3V44H75.3V7.53h3v75.9h-3V47H25.5Z"/>
    <path class="cls-1" d="M125.4,55.38,100.5,7.53h3.75l1.35,3.3,21,39.9h.6L150,10.83l1.5-3.3h3.75l-26.85,48v27.9h-3Z"/>
    <path class="cls-1" d="M177.75,83.43V7.53l17.85-.15q10.8,0,16.65,5.62t5.85,16q0,12.45-6.9,19t-19.65,6.6h-10.8v28.8ZM195.3,51.78q9.45-1,14.55-7t5.1-15.67q0-8.7-4.8-13.57T196.2,10.23l-15.45.15v41.4Z"/>
    <path class="cls-1" d="M243.3,83.43V7.53h38.4l.45.75-.6,2.4-35.25-.15v33.3h29.25l.3.6L275.4,47H246.3v33.6h35.85l.45.45-.6,2.4Z"/>
    <path class="cls-1" d="M305.1,83.43V7.53l17.85-.15q10.8,0,16.65,5.85t5.85,16a26.63,26.63,0,0,1-4.58,15.3A24,24,0,0,1,327.6,54a163.31,163.31,0,0,0,10,14.7A171.75,171.75,0,0,0,349.5,82.38l.15.6a5.42,5.42,0,0,0-1,.68,10.56,10.56,0,0,1-.9.67l-1.05-.45a98.21,98.21,0,0,1-11.92-13.95q-5-7.2-10.27-15.3H308.1v28.8Zm20.25-31.65a21.32,21.32,0,0,0,12.6-8.17,23.71,23.71,0,0,0,4.35-14.17q0-8.55-4.8-13.65t-13.95-5.55l-15.45.15V51.63Z"/>
    <path class="cls-2" d="M375,83.43V7.53l17.85-.15q10.8,0,16.65,5.62t5.85,16q0,12.45-6.9,19t-19.65,6.6H378v28.8Zm17.55-31.65q9.45-1,14.55-7t5.1-15.67q0-8.7-4.8-13.57t-13.95-5.33L378,10.38v41.4Z"/>
    <path class="cls-2" d="M443.54,83.43h-3V7.53h3Z"/>
    <path class="cls-2" d="M522.14,16.68h-.9a33,33,0,0,0-9.3-4.87,32.55,32.55,0,0,0-10.5-1.73q-14.55,0-22.12,9.15t-7.57,26.55q0,17.25,7.27,26.32t20.92,9.07a34.43,34.43,0,0,0,11.7-2.1,38.09,38.09,0,0,0,10.65-5.85l.9.3-.3,2.85a41.41,41.41,0,0,1-11.17,5.7,37,37,0,0,1-11.62,2q-15.45,0-23.47-9.82t-8-28.42q0-18.75,8.47-28.72t24.37-10a37.67,37.67,0,0,1,11.4,1.8A34.84,34.84,0,0,1,523,14Z"/>
</svg>
